# xmcd
#
# Track frame offsets: 
#        150
#        14730
#        28213
#        40872
#        50943
#        63868
#        81426
#        94340
#        114878
#        128893
#        141990
#
# Disc length: 2127 seconds
#
# Revision: 0
# Processed by: cddbd v1.5.2PL0 Copyright (c) Steve Scherf et al.
# Submitted via: ExactAudioCopyFreeDBPlugin 1.0
#
DISCID=a0084d0b
DTITLE=The Orange Circus Band - We Make Our Smiles
DYEAR=2016
DGENRE=Country
TTITLE0=Carmen Town
TTITLE1=The Legand Of Willie Rhoads
TTITLE2=C. C,, My Baby
TTITLE3=Get Me To Berlin
TTITLE4=Bury Me At Sea
TTITLE5=We Make Our Smiles
TTITLE6=Gold 'N' Rum
TTITLE7=The Saturday Song
TTITLE8=Snakebite Street
TTITLE9=Down The River To The Sea
TTITLE10=The Racetrack Song
EXTD=
EXTT0=
EXTT1=
EXTT2=
EXTT3=
EXTT4=
EXTT5=
EXTT6=
EXTT7=
EXTT8=
EXTT9=
EXTT10=
PLAYORDER=
